<?xml version="1.0" encoding="utf-8"?>
<!-- Generator: Adobe Illustrator 26.5.0, SVG Export Plug-In . SVG Version: 6.00 Build 0)  -->
<!DOCTYPE svg PUBLIC "-//W3C//DTD SVG 1.1//EN" "http://www.w3.org/Graphics/SVG/1.1/DTD/svg11.dtd" [
	<!ENTITY ns_extend "http://ns.adobe.com/Extensibility/1.0/">
	<!ENTITY ns_ai "http://ns.adobe.com/AdobeIllustrator/10.0/">
	<!ENTITY ns_graphs "http://ns.adobe.com/Graphs/1.0/">
	<!ENTITY ns_vars "http://ns.adobe.com/Variables/1.0/">
	<!ENTITY ns_imrep "http://ns.adobe.com/ImageReplacement/1.0/">
	<!ENTITY ns_sfw "http://ns.adobe.com/SaveForWeb/1.0/">
	<!ENTITY ns_custom "http://ns.adobe.com/GenericCustomNamespace/1.0/">
	<!ENTITY ns_adobe_xpath "http://ns.adobe.com/XPath/1.0/">
]>
<svg version="1.1" id="Layer_1" xmlns:x="&ns_extend;" xmlns:i="&ns_ai;" xmlns:graph="&ns_graphs;"
	 xmlns="http://www.w3.org/2000/svg" xmlns:xlink="http://www.w3.org/1999/xlink" x="0px" y="0px" viewBox="0 0 1366 768"
	 style="enable-background:new 0 0 1366 768;" xml:space="preserve">
<metadata>
	<sfw  xmlns="&ns_sfw;">
		<slices></slices>
		<sliceSourceBounds  bottomLeftOrigin="true" height="171.64" width="289.99" x="537.52" y="-469.86"></sliceSourceBounds>
	</sfw>
</metadata>
<path d="M756.77,328.4c-23.49,0-44.29,11.46-57.16,29.08c-12.86-17.62-33.67-29.08-57.16-29.08c-16.45,0-31.57,5.63-43.58,15.04
	v-45.23h-27.15v100.91c0,16.54,5.69,31.74,15.21,43.79h-22.47v-144.7h-26.94v144.7v26.94h26.94h78l0,0
	c23.49,0,44.29-11.46,57.16-29.08c12.86,17.62,33.67,29.08,57.16,29.08c39.06,0,70.73-31.67,70.73-70.73
	C827.51,360.06,795.84,328.4,756.77,328.4z M642.46,442.71c-24.07,0-43.58-19.51-43.58-43.58v0c0-24.07,19.51-43.58,43.58-43.58
	c24.07,0,43.58,19.51,43.58,43.58S666.53,442.71,642.46,442.71z M756.77,442.71c-24.07,0-43.58-19.51-43.58-43.58c0,0,0,0,0,0
	s0,0,0,0c0-24.07,19.51-43.58,43.58-43.58c24.07,0,43.58,19.51,43.58,43.58S780.84,442.71,756.77,442.71z"/>
</svg>
